<svg xmlns="http://www.w3.org/2000/svg" xmlns:xlink="http://www.w3.org/1999/xlink" viewBox="751 -76 264 264" role="img" aria-label="CORDO63"><defs><filter id="ff" x="-20%" y="-20%" width="140%" height="140%"><feGaussianBlur stdDeviation="1.7"/></filter><linearGradient id="fa" gradientUnits="userSpaceOnUse" x1="0" y1="-3.8" x2="0" y2="3.8"><stop offset="0" stop-color="#070708"/><stop offset=".2" stop-color="#3C3C40"/><stop offset=".3" stop-color="#A5A5AC"/><stop offset=".4" stop-color="#2C2C30"/><stop offset=".75" stop-color="#131315"/><stop offset="1" stop-color="#040405"/></linearGradient><path id="fb" d="M659.4 69.9L668.3 64.1L677.3 63.4L686.3 63.2L695.3 63.1L704.3 62.9L713.3 62.8L722.3 62.6L731.3 62.5L740.3 62.4L749.4 62.2L758.4 62.1L767.4 62L776.4 61.9L785.4 61.9L794.5 61.8L803.5 61.8L812.5 61.8L821.5 61.8L830.5 61.9L839.5 61.9L848.5 61.9L857.5 61.9L866.5 62L875.5 62L884.5 62L893.5 62L902.5 62L911.5 62L920.5 62L929.5 62L938.5 62L947.5 62L956.5 62L965.5 62.1L974.5 62.1L983.4 62L992.4 62L1001.4 61.9L1010.4 61.8L1019.4 61.7L1028.4 61.6L1037.4 61.5L1046.4 61.4L1055.4 61.3L1064.4 61.2L1073.4 61.1L1082.4 61L1091.4 61.4L1100.4 67L1100.5 73.5L1091.6 79.3L1082.6 80L1073.6 80.1L1064.6 80.2L1055.6 80.3L1046.6 80.4L1037.6 80.5L1028.6 80.6L1019.6 80.7L1010.6 80.8L1001.6 80.9L992.6 81L983.5 81L974.5 81.1L965.5 81.1L956.4 81L947.4 81L938.5 81L929.5 80.9L920.5 81L911.5 81L902.5 81L893.5 81L884.5 81L875.5 81L866.5 81L857.5 80.9L848.5 80.9L839.4 80.9L830.4 80.9L821.5 80.8L812.5 80.8L803.5 80.8L794.5 80.8L785.5 80.9L776.6 80.9L767.6 81L758.6 81.1L749.6 81.2L740.6 81.4L731.6 81.5L722.6 81.6L713.6 81.8L704.6 81.9L695.7 82.1L686.7 82.2L677.7 82.4L668.6 82L659.6 76.4Z"/><g id="ft"><path d="M862.8 68.6C862.8 71.3 862.4 74.5 861.5 76.9C860.6 79.3 859.2 81.2 857.4 83.1C855.6 84.9 853.4 86.6 850.8 87.9C848.2 89.3 845.2 90.5 841.8 91.4C838.4 92.4 835.1 93.1 830.5 93.5C825.9 93.9 818.7 94 814.4 94C810.2 94 808.5 93.9 805 93.5C801.6 93.1 797.1 92.4 793.7 91.4C790.3 90.5 787.3 89.3 784.7 87.9C782.1 86.6 779.9 84.9 778.1 83.1C776.3 81.2 774.9 79.3 774 76.9C773.1 74.5 772.7 71.3 772.7 68.6C772.7 65.8 773.1 62.6 774 60.2C774.9 57.8 776.3 55.9 778.1 54C779.9 52.2 782.1 50.6 784.7 49.2C787.3 47.8 790.3 46.6 793.7 45.7C797.1 44.7 801.6 44 805 43.6C808.5 43.2 810.2 43.1 814.4 43.1C818.7 43.1 825.9 43.2 830.5 43.6C835.1 44 838.4 44.7 841.8 45.7C845.2 46.6 848.2 47.8 850.8 49.2C853.4 50.6 855.6 52.2 857.4 54C859.2 55.9 860.6 57.8 861.5 60.2C862.4 62.6 862.8 65.8 862.8 68.6Z M772.7 68.6C772.8 66.3 772.8 59 773.2 55C773.5 51 774.2 47.3 774.7 44.6C775.2 41.8 775.4 40.8 776.2 38.3C777 35.9 778.1 32.6 779.3 30C780.5 27.4 781.9 25 783.4 22.8C784.9 20.6 786.8 18.4 788.3 16.8C789.7 15.3 790.4 14.7 792 13.5C793.7 12.3 796.1 10.7 798.3 9.7C800.6 8.6 802.9 7.8 805.6 7.2C808.2 6.6 810.9 6.2 814.1 6C817.3 5.9 822.2 6.1 824.9 6.3C827.6 6.5 828.3 6.7 830.3 7.3C832.4 7.8 835.3 8.7 837.5 9.8C839.7 10.9 841.8 12.2 843.8 13.7C845.7 15.3 847.8 17.4 849.2 19C850.6 20.5 851.2 21.2 852.4 23.1C853.6 25 855.2 27.8 856.4 30.4C857.5 33 858.9 37.4 859.4 38.8"/><path d="M908.3 20.9C908.8 20.2 909.4 18.1 911 16.4C912.7 14.8 915.2 12.6 918.2 11.2C921.1 9.7 925.5 8.4 928.7 7.6C931.9 6.8 934 6.6 937.5 6.4C941 6.1 945.1 5.9 949.7 6C954.3 6.1 960.8 6.4 965.3 7.1C969.8 7.8 973.8 9.1 976.6 10.1C979.4 11.1 980.7 12 982.3 13.2C983.9 14.3 985.2 15.1 986.5 17C987.7 18.8 989.2 21.5 989.6 24.2C990 27 989.4 31.3 988.9 33.6C988.3 36 987.4 36.8 986.2 38.2C985.1 39.6 984.2 40.6 982 41.9C979.7 43.3 976.4 45 972.7 46.1C969.1 47.2 964.2 48 960.1 48.5C956.1 48.9 950.5 48.8 948.5 48.9L927.5 48.9C932.4 49 950.1 48.9 957.2 49.2C964.3 49.6 966.8 50.3 970.1 50.9C973.4 51.6 974.6 51.9 977.1 52.9C979.7 53.8 983.2 55.3 985.5 56.8C987.8 58.4 989.7 60.1 991 62.1C992.3 64.1 993.2 66.2 993.5 68.7C993.8 71.2 993.6 74.8 992.8 77.2C992.1 79.6 990.8 81.4 989.1 83.2C987.3 85 984.5 86.7 982.4 87.9C980.2 89.1 979.2 89.5 976.3 90.3C973.5 91.2 969.4 92.3 965.1 92.9C960.9 93.5 956.2 93.9 950.8 94C945.4 94.1 937.9 94 932.9 93.6C927.8 93.3 923.5 92.4 920.3 91.8C917 91.2 915.9 90.8 913.3 89.8C910.8 88.8 907.4 87.3 905.2 85.7C903 84.2 901.2 82.4 899.9 80.4C898.7 78.4 898.1 74.7 897.7 73.6"/></g><clipPath id="fc"><use href="#fb" xlink:href="#fb"/></clipPath><clipPath id="fd"><path d="M762.8 56.1L771.8 56L780.9 55.9L789.9 55.8L799 55.8L806.5 55.8L806.5 86.8L799 86.8L790.1 86.8L781.1 86.9L772.1 87L763.2 87.1ZM889 56L898 56L907 56L916 56L925 56L934 56L934 87L925 87L916 87L907 87L898 87L889 87Z"/></clipPath><mask id="fm" maskUnits="userSpaceOnUse" x="751" y="-76" width="264" height="264"><g fill="none" stroke="#fff" stroke-width="22" stroke-linejoin="miter"><use href="#ft" xlink:href="#ft"/></g></mask><g id="fl"><use href="#fb" xlink:href="#fb" fill="#93241d" transform="translate(.3 1.1)"/><use href="#fb" xlink:href="#fb" fill="#D8352A" stroke="#822019" stroke-width="0.5"/></g><g id="fo"><use href="#fb" xlink:href="#fb" fill="#2A1408" opacity=".28" transform="translate(1.3 2.7)" filter="url(#ff)"/></g></defs><rect x="751" y="-76" width="264" height="264" rx="46" fill="#FFF2E2"/><g transform="translate(883 56) scale(1) translate(-883 -56)"><use href="#fo" xlink:href="#fo"/><use href="#fl" xlink:href="#fl"/><g clip-path="url(#fc)" opacity=".4"><g fill="none" stroke="#2A1408" stroke-width="22" transform="translate(3.1 6.2)" filter="url(#ff)"><use href="#ft" xlink:href="#ft"/></g></g><g fill="none" stroke="#1E1A17" stroke-width="22" stroke-linejoin="miter"><use href="#ft" xlink:href="#ft"/></g><g clip-path="url(#fd)"><g mask="url(#fm)"><use href="#fo" xlink:href="#fo"/></g><use href="#fl" xlink:href="#fl"/></g></g></svg>
